<svg width="100%" height="100%" viewBox="0 0 718 905" fill="none" xmlns="http://www.w3.org/2000/svg">
<path d="M503.06 434.301C435.89 474.301 353.95 427.171 357.8 426.351C484.78 398.741 496 318.631 496 318.631C470.65 256.691 401.55 276.631 401.55 276.631C399.55 364.531 294.93 369.481 294.93 369.481C288.21 340.961 288.58 274.371 288.58 274.371C256.87 252.201 250.45 261.611 250.45 261.611C260.45 173.611 300.72 145.241 300.72 145.241C307.43 138.991 337.42 124.941 352.82 123.121L353.37 125.561C353.37 125.561 337.8 164.441 367.64 167.001C392.75 169.201 407.02 138.291 410.91 128.481C443.56 138.601 474.72 161.251 495.45 199.351C544.49 289.491 503.06 434.301 503.06 434.301Z" fill="#808080"/>
<path d="M510.32 396.371L673.53 504.371C705.18 525.311 701.11 572.971 666.4 588.241L475.4 672.301C457.637 680.117 438.162 683.229 418.848 681.339C399.534 679.45 381.031 672.621 365.12 661.511L291.77 610.231" stroke="#C1C1C1" stroke-width="4.21" stroke-miterlimit="10"/>
<path d="M510.32 431.199L504.83 427.559L673.56 539.179C705.21 560.119 701.14 607.779 666.43 623.049L475.43 707.109C457.667 714.924 438.192 718.037 418.878 716.147C399.564 714.257 381.061 707.429 365.15 696.319L271.89 629.899" stroke="#C1C1C1" stroke-width="4.21" stroke-miterlimit="10"/>
<path d="M652.35 582.28L476.8 659.55C460.475 666.73 442.577 669.59 424.827 667.852C407.077 666.115 390.073 659.84 375.45 649.63L308.18 602.37C317.442 595.272 327.821 589.763 338.89 586.07C366.62 576.651 393.682 565.369 419.89 552.3C439.785 542.458 457.261 528.344 471.069 510.966C484.878 493.587 494.678 473.374 499.77 451.77C503.29 436.82 506.38 421.7 508.91 406.5L663.41 508.63C692.49 527.87 684.24 568.26 652.35 582.28Z" fill="#FAF3DD"/>
<path d="M200 806.22C200 806.22 230.78 793.46 236.68 783.84C236.68 783.84 237.79 805.68 232.03 813.14C226.27 820.6 191.85 840.32 190 837.85C188.15 835.38 200 806.22 200 806.22Z" fill="#FAF3DD"/>
<path d="M105.25 858.262C105.25 858.262 110.85 865.862 130.72 858.262C150.59 850.662 193.82 822.672 193.82 822.672C193.82 822.672 181.76 855.052 177.39 858.612C173.02 862.172 90.46 902.612 90.46 902.612C90.46 902.612 53.55 907.862 67.46 881.612L105.25 858.262Z" fill="#FAF3DD"/>
<path d="M224.07 435.18C178.57 452.89 130.42 494.5 144.27 609.73L148.12 639.67" stroke="#C1C1C1" stroke-width="4.21" stroke-miterlimit="10"/>
<path d="M224 359.929C231.44 349.309 238.16 337.829 242.28 325.469C246.4 313.109 246.61 299.719 247.76 286.719C250.82 251.859 255.56 223.029 269.01 190.559C280.66 162.459 315.85 126.259 350.86 122.829L354.01 122.559" stroke="#C1C1C1" stroke-width="4.21" stroke-miterlimit="10"/>
<path d="M312 432.629C311.83 432.139 311.66 431.679 311.48 431.199" stroke="#C1C1C1" stroke-width="4.21" stroke-miterlimit="10"/>
<path d="M294.93 367.319C293.21 357.209 291.93 347.409 290.93 338.109C290.933 337.934 290.913 337.759 290.87 337.589C285.63 285.659 290.93 247.879 290.93 247.879" stroke="#C1C1C1" stroke-width="4.21" stroke-miterlimit="10"/>
<path d="M417.24 52.1415L409.24 55.262C409.24 55.512 409.24 58.632 408.9 63.002C408.528 68.221 407.698 73.397 406.42 78.472C407.13 75.012 408.16 66.792 403.64 61.072C403.57 60.955 403.49 60.844 403.4 60.742C400.4 57.132 396.7 58.562 393.73 61.042C391.679 62.777 389.888 64.798 388.41 67.042C388.928 60.361 387.73 53.659 384.93 47.5715C383.104 43.4189 380.682 39.5549 377.74 36.1015C382.27 51.7015 376.46 61.912 376.46 61.912C361.11 65.522 350.46 64.752 342.52 63.382C335.83 57.142 338.15 34.6715 338.15 34.6715C331.42 40.1715 333.04 61.452 333.04 61.452C332.181 55.899 332.286 50.2389 333.35 44.7215C330.007 49.4492 328.076 55.029 327.78 60.812L327.66 60.752C327.196 60.633 326.739 60.489 326.29 60.322C325.466 59.888 324.668 59.407 323.9 58.882L319.47 55.882C326.16 21.7515 349.55 0.291499 385.69 6.5915C388.049 6.9981 390.371 7.6002 392.63 8.3915C416.44 20.8015 417.24 52.1415 417.24 52.1415Z" fill="#FAF3DD"/>
<path d="M211 384.539L201.89 357.119C201.688 356.481 201.327 355.904 200.841 355.444C200.354 354.984 199.759 354.655 199.11 354.489C199.03 354.489 198.94 354.489 198.85 354.429C198.76 354.369 198.74 354.429 198.68 354.429C198.47 354.415 198.26 354.415 198.05 354.429C197.039 354.433 196.068 354.818 195.33 355.509C194.59 356.192 194 357.021 193.595 357.944C193.191 358.866 192.981 359.862 192.98 360.869C192.981 361.657 193.106 362.44 193.35 363.189C195.35 368.979 198.91 379.429 200.6 384.189" fill="#FAF3DD"/>
<path d="M208.94 384.541L199.12 354.491C199.04 354.491 198.95 354.491 198.86 354.431C198.77 354.371 198.75 354.431 198.69 354.431L193.54 353.431C190.79 352.921 188.04 352.371 185.29 351.861C181.99 351.201 178.67 350.651 175.38 349.861C174.603 349.641 173.805 349.507 173 349.461C171.986 349.458 171.011 349.849 170.28 350.551C169.534 351.233 168.939 352.065 168.534 352.992C168.129 353.918 167.924 354.92 167.93 355.931C167.925 356.71 168.05 357.484 168.3 358.221C170.51 364.701 174.72 376.961 176.06 380.681L208.94 384.541Z" fill="#FAF3DD"/>
<path d="M403.1 247.869C402.1 258.999 401.58 272.469 401.23 289.399C401.23 325.399 361.43 355.209 326.06 362.029L261.2 376.679C252.63 378.339 245.04 372.989 239.08 369.439C232.95 365.789 226.67 361.439 222.25 358.209C215.89 353.559 203.64 357.299 206.15 368.389C206.691 370.498 207.712 372.453 209.132 374.103C210.553 375.752 212.335 377.052 214.34 377.899C215.469 378.406 216.632 378.833 217.82 379.179C218.263 379.29 218.656 379.544 218.939 379.902C219.223 380.259 219.38 380.7 219.387 381.156C219.394 381.612 219.25 382.058 218.977 382.424C218.705 382.79 218.319 383.055 217.88 383.179C212.26 385.119 201.97 386.269 185.37 380.179C164.1 372.349 162.45 420.889 191.53 429.339H191.64C218.43 437.439 247.26 436.399 274.95 435.239C306.393 434.048 337.682 430.231 368.49 423.829C384.16 420.509 400.26 417.059 414.6 409.969C439.3 397.759 457.1 383.759 474.03 361.969C493.03 337.539 501.14 305.489 505.72 275.439C510.96 241.059 503.72 212.029 485.29 182.439L484.61 181.359" stroke="#C1C1C1" stroke-width="4.21" stroke-miterlimit="10"/>
<path d="M211 384.539L201.89 357.119C201.688 356.481 201.327 355.904 200.841 355.444C200.354 354.984 199.759 354.655 199.11 354.489C199.03 354.489 198.94 354.489 198.85 354.429C198.76 354.369 198.74 354.429 198.68 354.429C198.47 354.415 198.26 354.415 198.05 354.429C197.039 354.433 196.068 354.818 195.33 355.509C194.59 356.192 194 357.021 193.595 357.944C193.191 358.866 192.981 359.862 192.98 360.869C192.981 361.657 193.106 362.44 193.35 363.189C195.35 368.979 198.91 379.429 200.6 384.189" stroke="#C1C1C1" stroke-width="4.21" stroke-miterlimit="10"/>
<path d="M199.12 354.491C199.04 354.491 198.95 354.491 198.86 354.431C198.77 354.371 198.75 354.431 198.69 354.431L193.54 353.431C190.79 352.921 188.04 352.371 185.29 351.861C181.99 351.201 178.67 350.651 175.38 349.861C174.603 349.641 173.805 349.507 173 349.461C171.986 349.458 171.011 349.849 170.28 350.551C169.534 351.233 168.939 352.065 168.534 352.992C168.129 353.918 167.924 354.92 167.93 355.931C167.925 356.71 168.05 357.484 168.3 358.221C170.51 364.701 174.72 376.961 176.06 380.681" stroke="#C1C1C1" stroke-width="4.21" stroke-miterlimit="10"/>
<path d="M324.67 59.828C324.67 72.828 327.2 85.258 333.44 96.738C338.44 105.958 345.78 115.248 356.28 118.298C358.607 118.969 361.018 119.306 363.44 119.298C381.26 119.218 384.04 98.108 384.04 98.108" stroke="#C1C1C1" stroke-width="4.21" stroke-miterlimit="10"/>
<path d="M408.3 67.371V67.431C407.474 73.881 406.055 80.242 404.06 86.431C401.677 93.814 401.114 101.664 402.42 109.311L405.19 125.421C405.316 126.139 405.642 126.807 406.13 127.348C406.618 127.889 407.249 128.282 407.95 128.481C443.11 138.691 474.32 161.221 492.48 193.751C515.13 234.371 519.26 283.291 517.43 328.891C515.82 368.421 509.43 407.721 500.36 446.191C494.816 469.703 484.148 491.701 469.12 510.614C454.091 529.527 435.072 544.888 413.42 555.601C384.928 569.828 355.504 582.106 325.35 592.351C309.388 597.637 294.804 606.414 282.659 618.044C270.514 629.673 261.113 643.863 255.14 659.581L184.28 848.001C181.676 854.957 176.54 860.672 169.9 864.001L102 898.111C93.426 902.403 83.645 903.644 74.27 901.631C71.84 901.107 69.623 899.862 67.91 898.06C66.196 896.258 65.065 893.982 64.664 891.528C64.262 889.074 64.609 886.556 65.659 884.302C66.709 882.048 68.413 880.163 70.55 878.891L105.23 858.261L152.92 615.141C156.276 593.451 164.29 572.746 176.41 554.447C188.529 536.149 204.468 520.693 223.13 509.141C225.618 507.624 228.211 506.288 230.89 505.141L334.27 460.251" stroke="#C1C1C1" stroke-width="4.21" stroke-miterlimit="10"/>
<path d="M379.88 4.2414C374.353 2.9242 368.632 2.6327 363 3.3814C362.769 3.3865 362.539 3.4066 362.31 3.4414" stroke="#C1C1C1" stroke-width="4.21" stroke-miterlimit="10"/>
<path d="M354.84 123.148C354.84 123.148 336.55 165.078 369.26 167.148C398.61 169.028 409.38 129.148 409.38 129.148" stroke="#C1C1C1" stroke-width="4.21" stroke-miterlimit="10"/>
<path d="M406 79.998C406.21 79.228 409.36 67.858 403.34 60.698C397.32 53.538 389.16 65.818 388.34 67.048C389.94 49.4185 377.69 36.0485 377.69 36.0485C382.21 51.6585 376.39 61.858 376.39 61.858C354.02 67.098 341.71 63.108 332.98 61.388C332.121 55.838 332.23 50.1816 333.3 44.6685C329.948 49.384 328.015 54.96 327.73 60.738H327.59C324.267 59.855 321.116 58.418 318.27 56.488L313.84 53.488C320.54 19.3685 343.92 -2.1115 380.06 4.1885C416.2 10.4885 417.21 52.0485 417.21 52.0485L409.16 55.178C409.16 55.178 409.23 68.898 406 79.998Z" stroke="#C1C1C1" stroke-width="4.21" stroke-miterlimit="10"/>
<path d="M338.69 78.219V94.809C338.691 95.011 338.74 95.21 338.833 95.389C338.925 95.569 339.058 95.724 339.222 95.843C339.385 95.962 339.574 96.04 339.774 96.073C339.973 96.105 340.177 96.09 340.37 96.029C341.675 95.597 342.874 94.895 343.89 93.969" stroke="#C1C1C1" stroke-width="4.21" stroke-miterlimit="10"/>
<path d="M328.769 90.814C334.002 88.774 335.945 81.222 333.108 73.946C330.271 66.67 323.729 62.426 318.496 64.466C313.263 66.506 311.321 74.058 314.157 81.334C316.994 88.61 323.536 92.854 328.769 90.814Z" stroke="#C1C1C1" stroke-width="4.21" stroke-miterlimit="10"/>
<path d="M360.259 95.56C365.492 93.52 367.435 85.968 364.598 78.692C361.761 71.416 355.22 67.172 349.987 69.212C344.753 71.252 342.811 78.804 345.648 86.08C348.484 93.356 355.026 97.6 360.259 95.56Z" stroke="#C1C1C1" stroke-width="4.21" stroke-miterlimit="10"/>
<path d="M334.29 79.079C334.29 79.079 337.39 75.539 343.89 79.689" stroke="#C1C1C1" stroke-width="4.21" stroke-miterlimit="10"/>
<path d="M353.37 117.25C353.37 117.25 355.62 124.87 362.24 149.57" stroke="#C1C1C1" stroke-width="4.21" stroke-miterlimit="10"/>
<path d="M187.63 839.099L226.63 818.049C228.865 816.838 230.77 815.098 232.18 812.983C233.59 810.867 234.462 808.439 234.72 805.909C241.2 742.259 239.22 702.02 239.22 702.02" stroke="#C1C1C1" stroke-width="4.21" stroke-miterlimit="10"/>
<path d="M152.23 512.679L2.14 407.789" stroke="#C1C1C1" stroke-width="4.21" stroke-miterlimit="10"/>
<path d="M143.73 541.581L2.14 442.621" stroke="#C1C1C1" stroke-width="4.21" stroke-miterlimit="10"/>
<path d="M717.86 342.212V428.082C717.86 432.019 716.716 435.872 714.568 439.172C712.42 442.472 709.36 445.078 705.76 446.672L599.26 493.832L566.7 543.312C565.862 544.539 564.656 545.467 563.255 545.963C561.855 546.459 560.332 546.496 558.909 546.07C557.486 545.643 556.236 544.775 555.339 543.591C554.442 542.406 553.945 540.967 553.92 539.482V513.922L543 518.752C540.571 519.814 537.916 520.256 535.274 520.038C532.633 519.82 530.086 518.949 527.864 517.503C525.642 516.058 523.814 514.083 522.544 511.756C521.275 509.429 520.603 506.822 520.59 504.172V432.462C520.591 423.518 523.208 414.769 528.117 407.293C533.026 399.816 540.013 393.938 548.22 390.382L694.58 326.932C697.114 325.832 699.882 325.379 702.634 325.616C705.386 325.852 708.037 326.769 710.346 328.285C712.655 329.801 714.551 331.868 715.863 334.299C717.175 336.73 717.861 339.449 717.86 342.212Z" fill="#FF715B"/>
<path d="M587.217 454.446C592.463 444.326 591.043 433.182 584.046 429.555C577.049 425.928 567.124 431.192 561.878 441.312C556.633 451.433 558.052 462.577 565.049 466.204C572.046 469.831 581.971 464.567 587.217 454.446Z" fill="#141414"/>
<path d="M632.701 434.978C637.946 424.857 636.527 413.713 629.53 410.086C622.533 406.459 612.608 411.723 607.362 421.843C602.116 431.964 603.536 443.108 610.533 446.735C617.53 450.362 627.455 445.098 632.701 434.978Z" fill="#141414"/>
<path d="M676.654 413.954C681.9 403.834 680.481 392.689 673.484 389.063C666.487 385.436 656.562 390.7 651.316 400.82C646.07 410.94 647.49 422.085 654.487 425.712C661.483 429.338 671.408 424.074 676.654 413.954Z" fill="#141414"/>
</svg>
