<svg width="195" height="24" viewBox="0 0 195 24" fill="none" xmlns="http://www.w3.org/2000/svg">
  <g clip-path="url(#clip0_6_44)">
    <path
      d="M18.4125 0.0562466C17.6157 -0.173441 16.786 0.290622 16.5563 1.0875L10.5563 22.0875C10.3266 22.8844 10.7907 23.7141 11.5875 23.9437C12.3844 24.1734 13.2141 23.7094 13.4438 22.9125L19.4438 1.9125C19.6735 1.11562 19.2094 0.285934 18.4125 0.0562466ZM22.1907 5.68593C21.6047 6.27187 21.6047 7.22343 22.1907 7.80937L26.3766 12L22.186 16.1906C21.6 16.7766 21.6 17.7281 22.186 18.3141C22.7719 18.9 23.7235 18.9 24.3094 18.3141L29.5594 13.0641C30.1454 12.4781 30.1454 11.5266 29.5594 10.9406L24.3094 5.69062C23.7235 5.10468 22.7719 5.10468 22.186 5.69062L22.1907 5.68593ZM7.81411 5.68593C7.22817 5.1 6.27661 5.1 5.69067 5.68593L0.440674 10.9359C-0.145264 11.5219 -0.145264 12.4734 0.440674 13.0594L5.69067 18.3094C6.27661 18.8953 7.22817 18.8953 7.81411 18.3094C8.40005 17.7234 8.40005 16.7719 7.81411 16.1859L3.62349 12L7.81411 7.80937C8.40005 7.22343 8.40005 6.27187 7.81411 5.68593Z"
      fill="#FF715B" />
  </g>
  <path
    d="M51.128 6.316C51.128 6.396 51.096 6.468 51.032 6.532C50.984 6.58 50.92 6.604 50.84 6.604H42.968C42.888 6.604 42.848 6.644 42.848 6.724V10.444C42.848 10.524 42.888 10.564 42.968 10.564H48.128C48.208 10.564 48.272 10.596 48.32 10.66C48.384 10.708 48.416 10.772 48.416 10.852V13.18C48.416 13.26 48.384 13.332 48.32 13.396C48.272 13.444 48.208 13.468 48.128 13.468H42.968C42.888 13.468 42.848 13.508 42.848 13.588V17.476C42.848 17.556 42.888 17.596 42.968 17.596H50.84C50.92 17.596 50.984 17.628 51.032 17.692C51.096 17.74 51.128 17.804 51.128 17.884V20.212C51.128 20.292 51.096 20.364 51.032 20.428C50.984 20.476 50.92 20.5 50.84 20.5H39.752C39.672 20.5 39.6 20.476 39.536 20.428C39.488 20.364 39.464 20.292 39.464 20.212V3.988C39.464 3.908 39.488 3.844 39.536 3.796C39.6 3.732 39.672 3.7 39.752 3.7H50.84C50.92 3.7 50.984 3.732 51.032 3.796C51.096 3.844 51.128 3.908 51.128 3.988V6.316ZM60.3436 10.588C60.3436 10.668 60.3116 10.74 60.2476 10.804C60.1996 10.852 60.1356 10.876 60.0556 10.876H57.7516C57.6716 10.876 57.6316 10.916 57.6316 10.996V16.084C57.6316 16.612 57.7356 17.004 57.9436 17.26C58.1676 17.516 58.5196 17.644 58.9996 17.644H59.7916C59.8716 17.644 59.9356 17.676 59.9836 17.74C60.0476 17.788 60.0796 17.852 60.0796 17.932V20.212C60.0796 20.388 59.9836 20.492 59.7916 20.524C59.1196 20.556 58.6396 20.572 58.3516 20.572C57.0236 20.572 56.0316 20.356 55.3756 19.924C54.7196 19.476 54.3836 18.644 54.3676 17.428V10.996C54.3676 10.916 54.3276 10.876 54.2476 10.876H52.8796C52.7996 10.876 52.7276 10.852 52.6636 10.804C52.6156 10.74 52.5916 10.668 52.5916 10.588V8.452C52.5916 8.372 52.6156 8.308 52.6636 8.26C52.7276 8.196 52.7996 8.164 52.8796 8.164H54.2476C54.3276 8.164 54.3676 8.124 54.3676 8.044V5.188C54.3676 5.108 54.3916 5.044 54.4396 4.996C54.5036 4.932 54.5756 4.9 54.6556 4.9H57.3436C57.4236 4.9 57.4876 4.932 57.5356 4.996C57.5996 5.044 57.6316 5.108 57.6316 5.188V8.044C57.6316 8.124 57.6716 8.164 57.7516 8.164H60.0556C60.1356 8.164 60.1996 8.196 60.2476 8.26C60.3116 8.308 60.3436 8.372 60.3436 8.452V10.588ZM68.8128 7.972C70.0928 7.972 71.1248 8.364 71.9088 9.148C72.6928 9.932 73.0848 10.996 73.0848 12.34V20.212C73.0848 20.292 73.0528 20.364 72.9888 20.428C72.9408 20.476 72.8768 20.5 72.7968 20.5H69.9888C69.9088 20.5 69.8368 20.476 69.7728 20.428C69.7248 20.364 69.7008 20.292 69.7008 20.212V13.036C69.7008 12.396 69.5168 11.876 69.1488 11.476C68.7968 11.076 68.3248 10.876 67.7328 10.876C67.1408 10.876 66.6608 11.076 66.2928 11.476C65.9408 11.876 65.7648 12.396 65.7648 13.036V20.212C65.7648 20.292 65.7328 20.364 65.6688 20.428C65.6208 20.476 65.5568 20.5 65.4768 20.5H62.6688C62.5888 20.5 62.5168 20.476 62.4528 20.428C62.4048 20.364 62.3808 20.292 62.3808 20.212V3.988C62.3808 3.908 62.4048 3.844 62.4528 3.796C62.5168 3.732 62.5888 3.7 62.6688 3.7H65.4768C65.5568 3.7 65.6208 3.732 65.6688 3.796C65.7328 3.844 65.7648 3.908 65.7648 3.988V9.292C65.7648 9.34 65.7808 9.372 65.8128 9.388C65.8448 9.404 65.8688 9.396 65.8848 9.364C66.5408 8.436 67.5168 7.972 68.8128 7.972ZM80.4258 7.972C81.4658 7.972 82.3938 8.156 83.2098 8.524C84.0258 8.876 84.6578 9.364 85.1058 9.988C85.5698 10.612 85.8018 11.308 85.8018 12.076V20.212C85.8018 20.292 85.7698 20.364 85.7058 20.428C85.6578 20.476 85.5938 20.5 85.5138 20.5H82.7058C82.6258 20.5 82.5538 20.476 82.4898 20.428C82.4418 20.364 82.4178 20.292 82.4178 20.212V19.42C82.4178 19.372 82.4018 19.34 82.3698 19.324C82.3378 19.308 82.3058 19.324 82.2738 19.372C81.6018 20.252 80.5218 20.692 79.0338 20.692C77.7858 20.692 76.7778 20.388 76.0098 19.78C75.2418 19.172 74.8578 18.276 74.8578 17.092C74.8578 15.86 75.2898 14.908 76.1538 14.236C77.0178 13.548 78.2498 13.204 79.8498 13.204H82.2978C82.3778 13.204 82.4178 13.164 82.4178 13.084V12.556C82.4178 12.028 82.2578 11.62 81.9378 11.332C81.6178 11.028 81.1378 10.876 80.4978 10.876C80.0018 10.876 79.5858 10.964 79.2498 11.14C78.9298 11.316 78.7218 11.564 78.6258 11.884C78.5778 12.06 78.4738 12.14 78.3138 12.124L75.4098 11.74C75.2178 11.708 75.1298 11.636 75.1458 11.524C75.2098 10.852 75.4738 10.244 75.9378 9.7C76.4178 9.156 77.0418 8.732 77.8098 8.428C78.5938 8.124 79.4658 7.972 80.4258 7.972ZM79.9458 18.172C80.6338 18.172 81.2178 17.988 81.6978 17.62C82.1778 17.252 82.4178 16.78 82.4178 16.204V15.34C82.4178 15.26 82.3778 15.22 82.2978 15.22H80.5698C79.8498 15.22 79.2818 15.356 78.8658 15.628C78.4658 15.9 78.2658 16.284 78.2658 16.78C78.2658 17.212 78.4178 17.556 78.7218 17.812C79.0258 18.052 79.4338 18.172 79.9458 18.172ZM94.6175 7.972C95.8975 7.972 96.9295 8.364 97.7135 9.148C98.4975 9.932 98.8895 10.996 98.8895 12.34V20.212C98.8895 20.292 98.8575 20.364 98.7935 20.428C98.7455 20.476 98.6815 20.5 98.6015 20.5H95.7935C95.7135 20.5 95.6415 20.476 95.5775 20.428C95.5295 20.364 95.5055 20.292 95.5055 20.212V13.036C95.5055 12.396 95.3215 11.876 94.9535 11.476C94.6015 11.076 94.1295 10.876 93.5375 10.876C92.9455 10.876 92.4655 11.076 92.0975 11.476C91.7455 11.876 91.5695 12.396 91.5695 13.036V20.212C91.5695 20.292 91.5375 20.364 91.4735 20.428C91.4255 20.476 91.3615 20.5 91.2815 20.5H88.4735C88.3935 20.5 88.3215 20.476 88.2575 20.428C88.2095 20.364 88.1855 20.292 88.1855 20.212V8.452C88.1855 8.372 88.2095 8.308 88.2575 8.26C88.3215 8.196 88.3935 8.164 88.4735 8.164H91.2815C91.3615 8.164 91.4255 8.196 91.4735 8.26C91.5375 8.308 91.5695 8.372 91.5695 8.452V9.292C91.5695 9.34 91.5855 9.372 91.6175 9.388C91.6495 9.404 91.6735 9.396 91.6895 9.364C92.3455 8.436 93.3215 7.972 94.6175 7.972ZM112.091 20.692C110.811 20.692 109.691 20.492 108.731 20.092C107.771 19.676 107.027 19.092 106.499 18.34C105.987 17.572 105.731 16.684 105.731 15.676V15.148C105.731 15.068 105.755 15.004 105.803 14.956C105.867 14.892 105.939 14.86 106.019 14.86H108.755C108.835 14.86 108.899 14.892 108.947 14.956C109.011 15.004 109.043 15.068 109.043 15.148V15.508C109.043 16.148 109.339 16.692 109.931 17.14C110.523 17.572 111.323 17.788 112.331 17.788C113.179 17.788 113.811 17.612 114.227 17.26C114.643 16.892 114.851 16.444 114.851 15.916C114.851 15.532 114.723 15.212 114.467 14.956C114.211 14.684 113.859 14.452 113.411 14.26C112.979 14.052 112.283 13.772 111.323 13.42C110.251 13.052 109.339 12.676 108.587 12.292C107.851 11.908 107.227 11.388 106.715 10.732C106.219 10.06 105.971 9.236 105.971 8.26C105.971 7.3 106.219 6.46 106.715 5.74C107.211 5.02 107.899 4.468 108.779 4.084C109.659 3.7 110.675 3.508 111.827 3.508C113.043 3.508 114.123 3.724 115.067 4.156C116.027 4.588 116.771 5.196 117.299 5.98C117.843 6.748 118.115 7.644 118.115 8.668V9.028C118.115 9.108 118.083 9.18 118.019 9.244C117.971 9.292 117.907 9.316 117.827 9.316H115.067C114.987 9.316 114.915 9.292 114.851 9.244C114.803 9.18 114.779 9.108 114.779 9.028V8.836C114.779 8.164 114.499 7.596 113.939 7.132C113.395 6.652 112.643 6.412 111.683 6.412C110.931 6.412 110.339 6.572 109.907 6.892C109.491 7.212 109.283 7.652 109.283 8.212C109.283 8.612 109.403 8.948 109.643 9.22C109.899 9.492 110.267 9.74 110.747 9.964C111.243 10.172 112.003 10.46 113.027 10.828C114.163 11.244 115.051 11.612 115.691 11.932C116.347 12.252 116.931 12.732 117.443 13.372C117.971 13.996 118.235 14.812 118.235 15.82C118.235 17.324 117.683 18.516 116.579 19.396C115.475 20.26 113.979 20.692 112.091 20.692ZM125.813 20.692C124.533 20.692 123.421 20.372 122.477 19.732C121.549 19.092 120.885 18.212 120.485 17.092C120.213 16.292 120.077 15.348 120.077 14.26C120.077 13.188 120.213 12.26 120.485 11.476C120.869 10.388 121.533 9.532 122.477 8.908C123.421 8.284 124.533 7.972 125.813 7.972C127.093 7.972 128.213 8.292 129.173 8.932C130.149 9.572 130.797 10.38 131.117 11.356C131.245 11.74 131.309 12.028 131.309 12.22V12.268C131.309 12.412 131.229 12.5 131.069 12.532L128.309 12.94H128.261C128.117 12.94 128.021 12.86 127.973 12.7L127.901 12.316C127.789 11.9 127.541 11.556 127.157 11.284C126.773 11.012 126.317 10.876 125.789 10.876C125.277 10.876 124.845 11.004 124.493 11.26C124.141 11.516 123.893 11.868 123.749 12.316C123.573 12.796 123.485 13.452 123.485 14.284C123.485 15.116 123.565 15.772 123.725 16.252C123.869 16.732 124.117 17.108 124.469 17.38C124.837 17.652 125.277 17.788 125.789 17.788C126.285 17.788 126.717 17.66 127.085 17.404C127.469 17.132 127.733 16.764 127.877 16.3C127.893 16.268 127.901 16.22 127.901 16.156C127.917 16.14 127.925 16.116 127.925 16.084C127.941 15.892 128.053 15.812 128.261 15.844L131.021 16.276C131.181 16.308 131.261 16.396 131.261 16.54C131.261 16.668 131.213 16.908 131.117 17.26C130.781 18.332 130.125 19.172 129.149 19.78C128.189 20.388 127.077 20.692 125.813 20.692ZM139.711 7.972C140.991 7.972 142.023 8.364 142.807 9.148C143.591 9.932 143.983 10.996 143.983 12.34V20.212C143.983 20.292 143.951 20.364 143.887 20.428C143.839 20.476 143.775 20.5 143.695 20.5H140.887C140.807 20.5 140.735 20.476 140.671 20.428C140.623 20.364 140.599 20.292 140.599 20.212V13.036C140.599 12.396 140.415 11.876 140.047 11.476C139.695 11.076 139.223 10.876 138.631 10.876C138.039 10.876 137.559 11.076 137.191 11.476C136.839 11.876 136.663 12.396 136.663 13.036V20.212C136.663 20.292 136.631 20.364 136.567 20.428C136.519 20.476 136.455 20.5 136.375 20.5H133.567C133.487 20.5 133.415 20.476 133.351 20.428C133.303 20.364 133.279 20.292 133.279 20.212V3.988C133.279 3.908 133.303 3.844 133.351 3.796C133.415 3.732 133.487 3.7 133.567 3.7H136.375C136.455 3.7 136.519 3.732 136.567 3.796C136.631 3.844 136.663 3.908 136.663 3.988V9.292C136.663 9.34 136.679 9.372 136.711 9.388C136.743 9.404 136.767 9.396 136.783 9.364C137.439 8.436 138.415 7.972 139.711 7.972ZM160.084 7.972C161.332 7.972 162.308 8.348 163.012 9.1C163.716 9.852 164.068 10.908 164.068 12.268V20.212C164.068 20.292 164.036 20.364 163.972 20.428C163.924 20.476 163.86 20.5 163.78 20.5H160.972C160.892 20.5 160.82 20.476 160.756 20.428C160.708 20.364 160.684 20.292 160.684 20.212V13.012C160.684 12.356 160.516 11.836 160.18 11.452C159.844 11.068 159.396 10.876 158.836 10.876C158.276 10.876 157.82 11.068 157.468 11.452C157.116 11.836 156.94 12.348 156.94 12.988V20.212C156.94 20.292 156.908 20.364 156.844 20.428C156.796 20.476 156.732 20.5 156.652 20.5H153.868C153.788 20.5 153.716 20.476 153.652 20.428C153.604 20.364 153.58 20.292 153.58 20.212V13.012C153.58 12.372 153.404 11.86 153.052 11.476C152.7 11.076 152.244 10.876 151.684 10.876C151.172 10.876 150.74 11.028 150.388 11.332C150.052 11.636 149.852 12.06 149.788 12.604V20.212C149.788 20.292 149.756 20.364 149.692 20.428C149.644 20.476 149.58 20.5 149.5 20.5H146.692C146.612 20.5 146.54 20.476 146.476 20.428C146.428 20.364 146.404 20.292 146.404 20.212V8.452C146.404 8.372 146.428 8.308 146.476 8.26C146.54 8.196 146.612 8.164 146.692 8.164H149.5C149.58 8.164 149.644 8.196 149.692 8.26C149.756 8.308 149.788 8.372 149.788 8.452V9.388C149.788 9.436 149.804 9.468 149.836 9.484C149.868 9.5 149.9 9.484 149.932 9.436C150.588 8.46 151.604 7.972 152.98 7.972C153.78 7.972 154.476 8.14 155.068 8.476C155.676 8.812 156.14 9.292 156.46 9.916C156.508 10.012 156.564 10.012 156.628 9.916C156.98 9.26 157.452 8.772 158.044 8.452C158.652 8.132 159.332 7.972 160.084 7.972ZM168.267 6.772C167.723 6.772 167.267 6.596 166.899 6.244C166.547 5.876 166.371 5.42 166.371 4.876C166.371 4.316 166.547 3.86 166.899 3.508C167.251 3.156 167.707 2.98 168.267 2.98C168.827 2.98 169.283 3.156 169.635 3.508C169.987 3.86 170.163 4.316 170.163 4.876C170.163 5.42 169.979 5.876 169.611 6.244C169.259 6.596 168.811 6.772 168.267 6.772ZM166.827 20.5C166.747 20.5 166.675 20.476 166.611 20.428C166.563 20.364 166.539 20.292 166.539 20.212V8.428C166.539 8.348 166.563 8.284 166.611 8.236C166.675 8.172 166.747 8.14 166.827 8.14H169.635C169.715 8.14 169.779 8.172 169.827 8.236C169.891 8.284 169.923 8.348 169.923 8.428V20.212C169.923 20.292 169.891 20.364 169.827 20.428C169.779 20.476 169.715 20.5 169.635 20.5H166.827ZM180.217 3.988C180.217 3.908 180.241 3.844 180.289 3.796C180.353 3.732 180.425 3.7 180.505 3.7H183.312C183.392 3.7 183.457 3.732 183.505 3.796C183.569 3.844 183.601 3.908 183.601 3.988V20.212C183.601 20.292 183.569 20.364 183.505 20.428C183.457 20.476 183.392 20.5 183.312 20.5H180.505C180.425 20.5 180.353 20.476 180.289 20.428C180.241 20.364 180.217 20.292 180.217 20.212V19.42C180.217 19.372 180.201 19.348 180.169 19.348C180.137 19.332 180.105 19.34 180.073 19.372C179.401 20.252 178.481 20.692 177.312 20.692C176.193 20.692 175.225 20.38 174.409 19.756C173.609 19.132 173.033 18.276 172.681 17.188C172.409 16.356 172.273 15.388 172.273 14.284C172.273 13.148 172.417 12.156 172.705 11.308C173.073 10.284 173.649 9.476 174.433 8.884C175.233 8.276 176.217 7.972 177.385 7.972C178.537 7.972 179.433 8.372 180.073 9.172C180.105 9.22 180.137 9.236 180.169 9.22C180.201 9.204 180.217 9.172 180.217 9.124V3.988ZM179.713 16.756C180.033 16.164 180.193 15.356 180.193 14.332C180.193 13.26 180.017 12.42 179.665 11.812C179.297 11.188 178.761 10.876 178.057 10.876C177.305 10.876 176.737 11.188 176.353 11.812C175.953 12.436 175.753 13.284 175.753 14.356C175.753 15.316 175.921 16.116 176.257 16.756C176.657 17.444 177.249 17.788 178.033 17.788C178.753 17.788 179.313 17.444 179.713 16.756ZM193.234 10.588C193.234 10.668 193.202 10.74 193.138 10.804C193.09 10.852 193.026 10.876 192.946 10.876H190.642C190.562 10.876 190.522 10.916 190.522 10.996V16.084C190.522 16.612 190.626 17.004 190.834 17.26C191.058 17.516 191.41 17.644 191.89 17.644H192.682C192.762 17.644 192.826 17.676 192.874 17.74C192.938 17.788 192.97 17.852 192.97 17.932V20.212C192.97 20.388 192.874 20.492 192.682 20.524C192.01 20.556 191.53 20.572 191.242 20.572C189.914 20.572 188.922 20.356 188.266 19.924C187.61 19.476 187.274 18.644 187.258 17.428V10.996C187.258 10.916 187.218 10.876 187.138 10.876H185.77C185.69 10.876 185.618 10.852 185.554 10.804C185.506 10.74 185.482 10.668 185.482 10.588V8.452C185.482 8.372 185.506 8.308 185.554 8.26C185.618 8.196 185.69 8.164 185.77 8.164H187.138C187.218 8.164 187.258 8.124 187.258 8.044V5.188C187.258 5.108 187.282 5.044 187.33 4.996C187.394 4.932 187.466 4.9 187.546 4.9H190.234C190.314 4.9 190.378 4.932 190.426 4.996C190.49 5.044 190.522 5.108 190.522 5.188V8.044C190.522 8.124 190.562 8.164 190.642 8.164H192.946C193.026 8.164 193.09 8.196 193.138 8.26C193.202 8.308 193.234 8.372 193.234 8.452V10.588Z"
    fill="#FAF3DD" />
  <defs>
    <clipPath id="clip0_6_44">
      <rect width="30" height="24" fill="white" />
    </clipPath>
  </defs>
</svg>