<svg width="256" height="256" viewBox="0 0 256 256" fill="none" xmlns="http://www.w3.org/2000/svg">
<rect x="4" y="4" width="248" height="248" rx="28" fill="#141414" stroke="#FF715B" stroke-width="8"/>
<g clip-path="url(#clip0_107_55)">
<path d="M149.84 51.3621C144.74 49.8847 139.43 52.8696 137.96 57.9952L99.5599 193.071C98.0899 198.196 101.06 203.533 106.16 205.01C111.26 206.488 116.57 203.503 118.04 198.377L156.44 63.3018C157.91 58.1761 154.94 52.8394 149.84 51.3621V51.3621ZM174.02 87.5731C170.27 91.342 170.27 97.4626 174.02 101.231L200.81 128.186L173.99 155.141C170.24 158.91 170.24 165.03 173.99 168.799C177.74 172.568 183.83 172.568 187.58 168.799L221.18 135.03C224.93 131.262 224.93 125.141 221.18 121.372L187.58 87.6033C183.83 83.8344 177.74 83.8344 173.99 87.6033L174.02 87.5731ZM82.0099 87.5731C78.2599 83.8043 72.1699 83.8043 68.4199 87.5731L34.8199 121.342C31.0699 125.111 31.0699 131.231 34.8199 135L68.4199 168.769C72.1699 172.538 78.2599 172.538 82.0099 168.769C85.7599 165 85.7599 158.88 82.0099 155.111L55.1899 128.186L82.0099 101.231C85.7599 97.4626 85.7599 91.342 82.0099 87.5731Z" fill="#FAF3DD"/>
</g>
<defs>
<clipPath id="clip0_107_55">
<rect width="192" height="154.372" fill="white" transform="translate(32 51)"/>
</clipPath>
</defs>
</svg>
