<svg width="195" height="29" viewBox="0 0 195 29" fill="none" xmlns="http://www.w3.org/2000/svg">
  <g clip-path="url(#clip0_6_44)">
    <path d="M18.4125 2.55625C17.6157 2.32656 16.786 2.79062 16.5563 3.5875L10.5563 24.5875C10.3266 25.3844 10.7907 26.2141 11.5875 26.4437C12.3844 26.6734 13.2141 26.2094 13.4438 25.4125L19.4438 4.4125C19.6735 3.61562 19.2094 2.78593 18.4125 2.55625V2.55625ZM22.1907 8.18593C21.6047 8.77187 21.6047 9.72343 22.1907 10.3094L26.3766 14.5L22.186 18.6906C21.6 19.2766 21.6 20.2281 22.186 20.8141C22.7719 21.4 23.7235 21.4 24.3094 20.8141L29.5594 15.5641C30.1454 14.9781 30.1454 14.0266 29.5594 13.4406L24.3094 8.19062C23.7235 7.60468 22.7719 7.60468 22.186 8.19062L22.1907 8.18593ZM7.81411 8.18593C7.22817 7.6 6.27661 7.6 5.69067 8.18593L0.440674 13.4359C-0.145264 14.0219 -0.145264 14.9734 0.440674 15.5594L5.69067 20.8094C6.27661 21.3953 7.22817 21.3953 7.81411 20.8094C8.40005 20.2234 8.40005 19.2719 7.81411 18.6859L3.62349 14.5L7.81411 10.3094C8.40005 9.72343 8.40005 8.77187 7.81411 8.18593Z" fill="#E96C11"/>
  </g>
  <path d="M51.128 9.816C51.128 9.896 51.096 9.968 51.032 10.032C50.984 10.08 50.92 10.104 50.84 10.104H42.968C42.888 10.104 42.848 10.144 42.848 10.224V13.944C42.848 14.024 42.888 14.064 42.968 14.064H48.128C48.208 14.064 48.272 14.096 48.32 14.16C48.384 14.208 48.416 14.272 48.416 14.352V16.68C48.416 16.76 48.384 16.832 48.32 16.896C48.272 16.944 48.208 16.968 48.128 16.968H42.968C42.888 16.968 42.848 17.008 42.848 17.088V20.976C42.848 21.056 42.888 21.096 42.968 21.096H50.84C50.92 21.096 50.984 21.128 51.032 21.192C51.096 21.24 51.128 21.304 51.128 21.384V23.712C51.128 23.792 51.096 23.864 51.032 23.928C50.984 23.976 50.92 24 50.84 24H39.752C39.672 24 39.6 23.976 39.536 23.928C39.488 23.864 39.464 23.792 39.464 23.712V7.488C39.464 7.408 39.488 7.344 39.536 7.296C39.6 7.232 39.672 7.2 39.752 7.2H50.84C50.92 7.2 50.984 7.232 51.032 7.296C51.096 7.344 51.128 7.408 51.128 7.488V9.816ZM60.3436 14.088C60.3436 14.168 60.3116 14.24 60.2476 14.304C60.1996 14.352 60.1356 14.376 60.0556 14.376H57.7516C57.6716 14.376 57.6316 14.416 57.6316 14.496V19.584C57.6316 20.112 57.7356 20.504 57.9436 20.76C58.1676 21.016 58.5196 21.144 58.9996 21.144H59.7916C59.8716 21.144 59.9356 21.176 59.9836 21.24C60.0476 21.288 60.0796 21.352 60.0796 21.432V23.712C60.0796 23.888 59.9836 23.992 59.7916 24.024C59.1196 24.056 58.6396 24.072 58.3516 24.072C57.0236 24.072 56.0316 23.856 55.3756 23.424C54.7196 22.976 54.3836 22.144 54.3676 20.928V14.496C54.3676 14.416 54.3276 14.376 54.2476 14.376H52.8796C52.7996 14.376 52.7276 14.352 52.6636 14.304C52.6156 14.24 52.5916 14.168 52.5916 14.088V11.952C52.5916 11.872 52.6156 11.808 52.6636 11.76C52.7276 11.696 52.7996 11.664 52.8796 11.664H54.2476C54.3276 11.664 54.3676 11.624 54.3676 11.544V8.688C54.3676 8.608 54.3916 8.544 54.4396 8.496C54.5036 8.432 54.5756 8.4 54.6556 8.4H57.3436C57.4236 8.4 57.4876 8.432 57.5356 8.496C57.5996 8.544 57.6316 8.608 57.6316 8.688V11.544C57.6316 11.624 57.6716 11.664 57.7516 11.664H60.0556C60.1356 11.664 60.1996 11.696 60.2476 11.76C60.3116 11.808 60.3436 11.872 60.3436 11.952V14.088ZM68.8128 11.472C70.0928 11.472 71.1248 11.864 71.9088 12.648C72.6928 13.432 73.0848 14.496 73.0848 15.84V23.712C73.0848 23.792 73.0528 23.864 72.9888 23.928C72.9408 23.976 72.8768 24 72.7968 24H69.9888C69.9088 24 69.8368 23.976 69.7728 23.928C69.7248 23.864 69.7008 23.792 69.7008 23.712V16.536C69.7008 15.896 69.5168 15.376 69.1488 14.976C68.7968 14.576 68.3248 14.376 67.7328 14.376C67.1408 14.376 66.6608 14.576 66.2928 14.976C65.9408 15.376 65.7648 15.896 65.7648 16.536V23.712C65.7648 23.792 65.7328 23.864 65.6688 23.928C65.6208 23.976 65.5568 24 65.4768 24H62.6688C62.5888 24 62.5168 23.976 62.4528 23.928C62.4048 23.864 62.3808 23.792 62.3808 23.712V7.488C62.3808 7.408 62.4048 7.344 62.4528 7.296C62.5168 7.232 62.5888 7.2 62.6688 7.2H65.4768C65.5568 7.2 65.6208 7.232 65.6688 7.296C65.7328 7.344 65.7648 7.408 65.7648 7.488V12.792C65.7648 12.84 65.7808 12.872 65.8128 12.888C65.8448 12.904 65.8688 12.896 65.8848 12.864C66.5408 11.936 67.5168 11.472 68.8128 11.472ZM80.4258 11.472C81.4658 11.472 82.3938 11.656 83.2098 12.024C84.0258 12.376 84.6578 12.864 85.1058 13.488C85.5698 14.112 85.8018 14.808 85.8018 15.576V23.712C85.8018 23.792 85.7698 23.864 85.7058 23.928C85.6578 23.976 85.5938 24 85.5138 24H82.7058C82.6258 24 82.5538 23.976 82.4898 23.928C82.4418 23.864 82.4178 23.792 82.4178 23.712V22.92C82.4178 22.872 82.4018 22.84 82.3698 22.824C82.3378 22.808 82.3058 22.824 82.2738 22.872C81.6018 23.752 80.5218 24.192 79.0338 24.192C77.7858 24.192 76.7778 23.888 76.0098 23.28C75.2418 22.672 74.8578 21.776 74.8578 20.592C74.8578 19.36 75.2898 18.408 76.1538 17.736C77.0178 17.048 78.2498 16.704 79.8498 16.704H82.2978C82.3778 16.704 82.4178 16.664 82.4178 16.584V16.056C82.4178 15.528 82.2578 15.12 81.9378 14.832C81.6178 14.528 81.1378 14.376 80.4978 14.376C80.0018 14.376 79.5858 14.464 79.2498 14.64C78.9298 14.816 78.7218 15.064 78.6258 15.384C78.5778 15.56 78.4738 15.64 78.3138 15.624L75.4098 15.24C75.2178 15.208 75.1298 15.136 75.1458 15.024C75.2098 14.352 75.4738 13.744 75.9378 13.2C76.4178 12.656 77.0418 12.232 77.8098 11.928C78.5938 11.624 79.4658 11.472 80.4258 11.472ZM79.9458 21.672C80.6338 21.672 81.2178 21.488 81.6978 21.12C82.1778 20.752 82.4178 20.28 82.4178 19.704V18.84C82.4178 18.76 82.3778 18.72 82.2978 18.72H80.5698C79.8498 18.72 79.2818 18.856 78.8658 19.128C78.4658 19.4 78.2658 19.784 78.2658 20.28C78.2658 20.712 78.4178 21.056 78.7218 21.312C79.0258 21.552 79.4338 21.672 79.9458 21.672ZM94.6175 11.472C95.8975 11.472 96.9295 11.864 97.7135 12.648C98.4975 13.432 98.8895 14.496 98.8895 15.84V23.712C98.8895 23.792 98.8575 23.864 98.7935 23.928C98.7455 23.976 98.6815 24 98.6015 24H95.7935C95.7135 24 95.6415 23.976 95.5775 23.928C95.5295 23.864 95.5055 23.792 95.5055 23.712V16.536C95.5055 15.896 95.3215 15.376 94.9535 14.976C94.6015 14.576 94.1295 14.376 93.5375 14.376C92.9455 14.376 92.4655 14.576 92.0975 14.976C91.7455 15.376 91.5695 15.896 91.5695 16.536V23.712C91.5695 23.792 91.5375 23.864 91.4735 23.928C91.4255 23.976 91.3615 24 91.2815 24H88.4735C88.3935 24 88.3215 23.976 88.2575 23.928C88.2095 23.864 88.1855 23.792 88.1855 23.712V11.952C88.1855 11.872 88.2095 11.808 88.2575 11.76C88.3215 11.696 88.3935 11.664 88.4735 11.664H91.2815C91.3615 11.664 91.4255 11.696 91.4735 11.76C91.5375 11.808 91.5695 11.872 91.5695 11.952V12.792C91.5695 12.84 91.5855 12.872 91.6175 12.888C91.6495 12.904 91.6735 12.896 91.6895 12.864C92.3455 11.936 93.3215 11.472 94.6175 11.472ZM112.091 24.192C110.811 24.192 109.691 23.992 108.731 23.592C107.771 23.176 107.027 22.592 106.499 21.84C105.987 21.072 105.731 20.184 105.731 19.176V18.648C105.731 18.568 105.755 18.504 105.803 18.456C105.867 18.392 105.939 18.36 106.019 18.36H108.755C108.835 18.36 108.899 18.392 108.947 18.456C109.011 18.504 109.043 18.568 109.043 18.648V19.008C109.043 19.648 109.339 20.192 109.931 20.64C110.523 21.072 111.323 21.288 112.331 21.288C113.179 21.288 113.811 21.112 114.227 20.76C114.643 20.392 114.851 19.944 114.851 19.416C114.851 19.032 114.723 18.712 114.467 18.456C114.211 18.184 113.859 17.952 113.411 17.76C112.979 17.552 112.283 17.272 111.323 16.92C110.251 16.552 109.339 16.176 108.587 15.792C107.851 15.408 107.227 14.888 106.715 14.232C106.219 13.56 105.971 12.736 105.971 11.76C105.971 10.8 106.219 9.96 106.715 9.24C107.211 8.52 107.899 7.968 108.779 7.584C109.659 7.2 110.675 7.008 111.827 7.008C113.043 7.008 114.123 7.224 115.067 7.656C116.027 8.088 116.771 8.696 117.299 9.48C117.843 10.248 118.115 11.144 118.115 12.168V12.528C118.115 12.608 118.083 12.68 118.019 12.744C117.971 12.792 117.907 12.816 117.827 12.816H115.067C114.987 12.816 114.915 12.792 114.851 12.744C114.803 12.68 114.779 12.608 114.779 12.528V12.336C114.779 11.664 114.499 11.096 113.939 10.632C113.395 10.152 112.643 9.912 111.683 9.912C110.931 9.912 110.339 10.072 109.907 10.392C109.491 10.712 109.283 11.152 109.283 11.712C109.283 12.112 109.403 12.448 109.643 12.72C109.899 12.992 110.267 13.24 110.747 13.464C111.243 13.672 112.003 13.96 113.027 14.328C114.163 14.744 115.051 15.112 115.691 15.432C116.347 15.752 116.931 16.232 117.443 16.872C117.971 17.496 118.235 18.312 118.235 19.32C118.235 20.824 117.683 22.016 116.579 22.896C115.475 23.76 113.979 24.192 112.091 24.192ZM125.813 24.192C124.533 24.192 123.421 23.872 122.477 23.232C121.549 22.592 120.885 21.712 120.485 20.592C120.213 19.792 120.077 18.848 120.077 17.76C120.077 16.688 120.213 15.76 120.485 14.976C120.869 13.888 121.533 13.032 122.477 12.408C123.421 11.784 124.533 11.472 125.813 11.472C127.093 11.472 128.213 11.792 129.173 12.432C130.149 13.072 130.797 13.88 131.117 14.856C131.245 15.24 131.309 15.528 131.309 15.72V15.768C131.309 15.912 131.229 16 131.069 16.032L128.309 16.44H128.261C128.117 16.44 128.021 16.36 127.973 16.2L127.901 15.816C127.789 15.4 127.541 15.056 127.157 14.784C126.773 14.512 126.317 14.376 125.789 14.376C125.277 14.376 124.845 14.504 124.493 14.76C124.141 15.016 123.893 15.368 123.749 15.816C123.573 16.296 123.485 16.952 123.485 17.784C123.485 18.616 123.565 19.272 123.725 19.752C123.869 20.232 124.117 20.608 124.469 20.88C124.837 21.152 125.277 21.288 125.789 21.288C126.285 21.288 126.717 21.16 127.085 20.904C127.469 20.632 127.733 20.264 127.877 19.8C127.893 19.768 127.901 19.72 127.901 19.656C127.917 19.64 127.925 19.616 127.925 19.584C127.941 19.392 128.053 19.312 128.261 19.344L131.021 19.776C131.181 19.808 131.261 19.896 131.261 20.04C131.261 20.168 131.213 20.408 131.117 20.76C130.781 21.832 130.125 22.672 129.149 23.28C128.189 23.888 127.077 24.192 125.813 24.192ZM139.711 11.472C140.991 11.472 142.023 11.864 142.807 12.648C143.591 13.432 143.983 14.496 143.983 15.84V23.712C143.983 23.792 143.951 23.864 143.887 23.928C143.839 23.976 143.775 24 143.695 24H140.887C140.807 24 140.735 23.976 140.671 23.928C140.623 23.864 140.599 23.792 140.599 23.712V16.536C140.599 15.896 140.415 15.376 140.047 14.976C139.695 14.576 139.223 14.376 138.631 14.376C138.039 14.376 137.559 14.576 137.191 14.976C136.839 15.376 136.663 15.896 136.663 16.536V23.712C136.663 23.792 136.631 23.864 136.567 23.928C136.519 23.976 136.455 24 136.375 24H133.567C133.487 24 133.415 23.976 133.351 23.928C133.303 23.864 133.279 23.792 133.279 23.712V7.488C133.279 7.408 133.303 7.344 133.351 7.296C133.415 7.232 133.487 7.2 133.567 7.2H136.375C136.455 7.2 136.519 7.232 136.567 7.296C136.631 7.344 136.663 7.408 136.663 7.488V12.792C136.663 12.84 136.679 12.872 136.711 12.888C136.743 12.904 136.767 12.896 136.783 12.864C137.439 11.936 138.415 11.472 139.711 11.472ZM160.084 11.472C161.332 11.472 162.308 11.848 163.012 12.6C163.716 13.352 164.068 14.408 164.068 15.768V23.712C164.068 23.792 164.036 23.864 163.972 23.928C163.924 23.976 163.86 24 163.78 24H160.972C160.892 24 160.82 23.976 160.756 23.928C160.708 23.864 160.684 23.792 160.684 23.712V16.512C160.684 15.856 160.516 15.336 160.18 14.952C159.844 14.568 159.396 14.376 158.836 14.376C158.276 14.376 157.82 14.568 157.468 14.952C157.116 15.336 156.94 15.848 156.94 16.488V23.712C156.94 23.792 156.908 23.864 156.844 23.928C156.796 23.976 156.732 24 156.652 24H153.868C153.788 24 153.716 23.976 153.652 23.928C153.604 23.864 153.58 23.792 153.58 23.712V16.512C153.58 15.872 153.404 15.36 153.052 14.976C152.7 14.576 152.244 14.376 151.684 14.376C151.172 14.376 150.74 14.528 150.388 14.832C150.052 15.136 149.852 15.56 149.788 16.104V23.712C149.788 23.792 149.756 23.864 149.692 23.928C149.644 23.976 149.58 24 149.5 24H146.692C146.612 24 146.54 23.976 146.476 23.928C146.428 23.864 146.404 23.792 146.404 23.712V11.952C146.404 11.872 146.428 11.808 146.476 11.76C146.54 11.696 146.612 11.664 146.692 11.664H149.5C149.58 11.664 149.644 11.696 149.692 11.76C149.756 11.808 149.788 11.872 149.788 11.952V12.888C149.788 12.936 149.804 12.968 149.836 12.984C149.868 13 149.9 12.984 149.932 12.936C150.588 11.96 151.604 11.472 152.98 11.472C153.78 11.472 154.476 11.64 155.068 11.976C155.676 12.312 156.14 12.792 156.46 13.416C156.508 13.512 156.564 13.512 156.628 13.416C156.98 12.76 157.452 12.272 158.044 11.952C158.652 11.632 159.332 11.472 160.084 11.472ZM168.267 10.272C167.723 10.272 167.267 10.096 166.899 9.744C166.547 9.376 166.371 8.92 166.371 8.376C166.371 7.816 166.547 7.36 166.899 7.008C167.251 6.656 167.707 6.48 168.267 6.48C168.827 6.48 169.283 6.656 169.635 7.008C169.987 7.36 170.163 7.816 170.163 8.376C170.163 8.92 169.979 9.376 169.611 9.744C169.259 10.096 168.811 10.272 168.267 10.272ZM166.827 24C166.747 24 166.675 23.976 166.611 23.928C166.563 23.864 166.539 23.792 166.539 23.712V11.928C166.539 11.848 166.563 11.784 166.611 11.736C166.675 11.672 166.747 11.64 166.827 11.64H169.635C169.715 11.64 169.779 11.672 169.827 11.736C169.891 11.784 169.923 11.848 169.923 11.928V23.712C169.923 23.792 169.891 23.864 169.827 23.928C169.779 23.976 169.715 24 169.635 24H166.827ZM180.217 7.488C180.217 7.408 180.241 7.344 180.289 7.296C180.353 7.232 180.425 7.2 180.505 7.2H183.312C183.392 7.2 183.457 7.232 183.505 7.296C183.569 7.344 183.601 7.408 183.601 7.488V23.712C183.601 23.792 183.569 23.864 183.505 23.928C183.457 23.976 183.392 24 183.312 24H180.505C180.425 24 180.353 23.976 180.289 23.928C180.241 23.864 180.217 23.792 180.217 23.712V22.92C180.217 22.872 180.201 22.848 180.169 22.848C180.137 22.832 180.105 22.84 180.073 22.872C179.401 23.752 178.481 24.192 177.312 24.192C176.193 24.192 175.225 23.88 174.409 23.256C173.609 22.632 173.033 21.776 172.681 20.688C172.409 19.856 172.273 18.888 172.273 17.784C172.273 16.648 172.417 15.656 172.705 14.808C173.073 13.784 173.649 12.976 174.433 12.384C175.233 11.776 176.217 11.472 177.385 11.472C178.537 11.472 179.433 11.872 180.073 12.672C180.105 12.72 180.137 12.736 180.169 12.72C180.201 12.704 180.217 12.672 180.217 12.624V7.488ZM179.713 20.256C180.033 19.664 180.193 18.856 180.193 17.832C180.193 16.76 180.017 15.92 179.665 15.312C179.297 14.688 178.761 14.376 178.057 14.376C177.305 14.376 176.737 14.688 176.353 15.312C175.953 15.936 175.753 16.784 175.753 17.856C175.753 18.816 175.921 19.616 176.257 20.256C176.657 20.944 177.249 21.288 178.033 21.288C178.753 21.288 179.313 20.944 179.713 20.256ZM193.234 14.088C193.234 14.168 193.202 14.24 193.138 14.304C193.09 14.352 193.026 14.376 192.946 14.376H190.642C190.562 14.376 190.522 14.416 190.522 14.496V19.584C190.522 20.112 190.626 20.504 190.834 20.76C191.058 21.016 191.41 21.144 191.89 21.144H192.682C192.762 21.144 192.826 21.176 192.874 21.24C192.938 21.288 192.97 21.352 192.97 21.432V23.712C192.97 23.888 192.874 23.992 192.682 24.024C192.01 24.056 191.53 24.072 191.242 24.072C189.914 24.072 188.922 23.856 188.266 23.424C187.61 22.976 187.274 22.144 187.258 20.928V14.496C187.258 14.416 187.218 14.376 187.138 14.376H185.77C185.69 14.376 185.618 14.352 185.554 14.304C185.506 14.24 185.482 14.168 185.482 14.088V11.952C185.482 11.872 185.506 11.808 185.554 11.76C185.618 11.696 185.69 11.664 185.77 11.664H187.138C187.218 11.664 187.258 11.624 187.258 11.544V8.688C187.258 8.608 187.282 8.544 187.33 8.496C187.394 8.432 187.466 8.4 187.546 8.4H190.234C190.314 8.4 190.378 8.432 190.426 8.496C190.49 8.544 190.522 8.608 190.522 8.688V11.544C190.522 11.624 190.562 11.664 190.642 11.664H192.946C193.026 11.664 193.09 11.696 193.138 11.76C193.202 11.808 193.234 11.872 193.234 11.952V14.088Z" fill="white"/>
  <defs>
    <clipPath id="clip0_6_44">
      <rect width="30" height="24" fill="white" transform="translate(0 2.5)"/>
    </clipPath>
  </defs>
</svg>
